<?xml version="1.0" standalone="no"?>
<!DOCTYPE svg PUBLIC "-//W3C//DTD SVG 1.1//EN" "http://www.w3.org/Graphics/SVG/1.1/DTD/svg11.dtd" >
<svg xmlns="http://www.w3.org/2000/svg" xmlns:xlink="http://www.w3.org/1999/xlink" version="1.1">
<metadata></metadata>
<defs>
<font id="mesmerizeSexpandedBkIt" horiz-adv-x="1804" >
<font-face units-per-em="2048" ascent="1622" descent="-426" />
<missing-glyph horiz-adv-x="645" />
<glyph unicode="&#x28;C&#x29;" d="M270 604q0 178 74 353.5t206 315.5t313 227t397 87q164 0 283.5 -51t198.5 -138t116.5 -200t37.5 -235q0 -176 -73.5 -352.5t-205.5 -316.5t-315.5 -227t-404.5 -87q-156 2 -273.5 52t-195.5 135t-118 197.5t-40 239.5zM381 618q0 -117 34 -216t102.5 -172.5 t169.5 -114.5t237 -41q180 0 337.5 72.5t273.5 194.5t182.5 278.5t66.5 324.5q0 119 -35 219.5t-103.5 174t-170 114.5t-236.5 41q-182 0 -339 -73.5t-271.5 -195.5t-181 -280t-66.5 -326zM639 690q0 113 45 211t123 169t179 112t216 41q106 0 185 -34t135 -87l-78 -78 q-51 51 -122 76.5t-144 25.5q-82 0 -159 -31.5t-135.5 -88t-93 -134t-34.5 -170.5q0 -133 72.5 -201.5t199.5 -68.5q94 0 167 38t132 108l64 -62q-37 -45 -83 -79t-98.5 -56.5t-107.5 -33.5t-109 -11q-162 0 -258 94t-96 260z" />
<glyph unicode="&#x28;R&#x29;" d="M270 606q0 176 74 351.5t205 315.5t313 227t398 87q164 0 283.5 -51t198.5 -138t116.5 -200t37.5 -235q0 -176 -73.5 -352.5t-205.5 -316.5t-315.5 -227t-404.5 -87q-160 2 -278.5 54t-195.5 138t-115 198.5t-38 235.5zM381 618q0 -117 34 -216t102.5 -172.5 t169.5 -114.5t237 -41q180 0 337.5 72.5t274.5 194.5t183.5 278.5t66.5 326.5q0 119 -35 219.5t-103.5 173t-170 113.5t-236.5 41q-182 0 -339 -73.5t-272.5 -195.5t-182 -280t-66.5 -326zM692 348l199 862h330q111 0 160 -55t49 -133q0 -43 -15.5 -87t-46.5 -82t-77 -65.5 t-107 -39.5l213 -400h-129l-201 393h-172l-90 -393h-113zM918 836h208q51 0 87 14t58.5 38.5t33 55.5t10.5 64q0 51 -29 78.5t-96 27.5h-209z" />
<glyph horiz-adv-x="0" />
<glyph horiz-adv-x="0" />
<glyph unicode="&#xd;" horiz-adv-x="645" />
<glyph horiz-adv-x="522" />
<glyph unicode=" "  horiz-adv-x="645" />
<glyph unicode="&#x09;" horiz-adv-x="645" />
<glyph unicode="&#xa0;" horiz-adv-x="645" />
<glyph unicode="!" horiz-adv-x="573" d="M172 0l64 268h225l-62 -268h-227zM315 457l222 1110h225l-291 -1110h-156z" />
<glyph unicode="&#x22;" horiz-adv-x="735" d="M379 1055l88 512h205l-148 -512h-145zM379 1055zM698 1055l88 512h205l-148 -512h-145z" />
<glyph unicode="#" horiz-adv-x="1570" d="M248 467l28 127h293l154 424h-287l31 125h301l152 424h143l-154 -424h369l152 424h143l-152 -424h271l-29 -125h-287l-151 -424h278l-30 -127h-293l-168 -467h-144l166 467h-366l-168 -467h-142l166 467h-276zM713 594h366l154 424h-369z" />
<glyph unicode="$" horiz-adv-x="1570" d="M315 268l80 156q96 -49 213 -73.5t221 -31.5l95 402q-86 20 -162 39.5t-134.5 52.5t-92 82t-33.5 127q0 86 43 155.5t119.5 119t183 77t233.5 31.5l58 246h112l-57 -248q233 -16 408 -111l-82 -155q-84 39 -175.5 64.5t-189.5 35.5l-90 -387q94 -23 171 -43.5t132 -51 t85 -77.5t30 -121q0 -82 -39 -153.5t-113 -126t-181.5 -86t-244.5 -35.5l-55 -240h-113l56 242q-55 2 -119 9t-126.5 20.5t-122.5 33t-110 47.5zM727 1036q0 -61 38 -86.5t109 -48.5l84 -24l84 364q-141 -4 -228 -55t-87 -150zM942 319q162 10 237.5 68.5t75.5 149.5 q0 59 -32.5 88.5t-104.5 48.5l-88 22z" />
<glyph unicode="%" horiz-adv-x="1951" d="M324 0l1597 1647l80 -76l-1599 -1649zM324 0zM356 1007q0 98 37 197.5t100.5 179.5t149.5 130t184 50q72 0 124 -26.5t86 -70.5t50.5 -103.5t16.5 -122.5q0 -100 -36 -200.5t-99.5 -180.5t-151 -130t-189.5 -50q-72 0 -123 28.5t-83.5 73.5t-49 104.5t-16.5 120.5z M501 1026q0 -88 39 -148.5t121 -60.5q61 0 115.5 36t95.5 93t64.5 129t23.5 143q0 92 -40 151.5t-120 59.5q-61 0 -115.5 -35.5t-95.5 -94t-64.5 -130t-23.5 -143.5zM1204 315q0 98 37 197.5t100.5 179.5t149.5 130t184 50q72 0 124 -26.5t86 -70.5t50.5 -103.5t16.5 -122.5 q0 -100 -36 -200.5t-99.5 -180.5t-151 -130t-189.5 -50q-72 0 -123 28.5t-83.5 73.5t-49 104.5t-16.5 120.5zM1349 334q0 -88 39 -148.5t121 -60.5q61 0 115.5 36t95.5 93t64.5 129t23.5 143q0 92 -40 151.5t-120 59.5q-61 0 -115.5 -35.5t-95.5 -94t-64.5 -130 t-23.5 -143.5z" />
<glyph unicode="&#x26;" horiz-adv-x="1484" d="M154 315q0 96 33.5 171t91 132.5t132 102.5t158.5 82q-53 70 -88 148.5t-35 172.5q0 92 38 176t105.5 147.5t163 101.5t212.5 38q150 0 242.5 -71.5t92.5 -229.5q0 -106 -43 -187t-110.5 -143.5t-152.5 -109.5t-171 -86l244 -275l168 297h197l-252 -424l317 -358h-242 l-178 205q-78 -92 -202.5 -158.5t-313.5 -66.5q-90 0 -164.5 18t-128 58t-84 104.5t-30.5 154.5zM369 373q0 -113 65 -168t182 -55q113 0 200 48t155 134l-307 356q-72 -33 -127.5 -64.5t-92 -67.5t-56 -81t-19.5 -102zM625 1126q0 -76 30.5 -139t71.5 -117q74 31 143.5 66 t124 79t87 99t32.5 127q0 90 -52 134t-138 44q-63 0 -118.5 -22.5t-95.5 -62.5t-62.5 -93.5t-22.5 -114.5z" />
<glyph unicode="'" horiz-adv-x="415" d="M379 1055l88 512h205l-148 -512h-145z" />
<glyph unicode="(" horiz-adv-x="874" d="M333 226q9 220 87 556q80 344 173 564.5t197.5 352.5t216 193.5t226.5 85.5l-35 -137q-100 -29 -191.5 -102.5t-173 -201.5t-151.5 -314.5t-127 -440.5q-59 -262 -72.5 -449.5t10 -312t81 -195.5t137.5 -99l-31 -140q-109 25 -191.5 89.5t-123.5 197.5t-32 353z" />
<glyph unicode=")" horiz-adv-x="874" d="M2 -414l33 140q94 27 184 99.5t173 199.5t156 314t132 443q61 262 75.5 450.5t-10 314.5t-83 197t-140.5 97l33 137q70 -16 131.5 -49t107.5 -91t74.5 -146t33.5 -216t-15.5 -299t-71.5 -395q-78 -332 -169 -551t-194.5 -354t-217 -200.5t-232.5 -90.5z" />
<glyph unicode="*" horiz-adv-x="1157" d="M365 1130l380 72l-270 193l109 114l241 -233l60 364h143l-106 -364l346 231l55 -112l-354 -193l344 -72l-66 -129l-327 115l96 -321l-139 -58l-54 334l-205 -334l-110 56l248 323l-385 -117z" />
<glyph unicode="+" horiz-adv-x="1572" d="M459 735l33 137h423l95 412h145l-94 -412h422l-33 -137h-422l-94 -413h-146l95 413h-424z" />
<glyph unicode="," horiz-adv-x="571" d="M127 -299l98 299h-53l64 268h225l-10 -37l-230 -530h-94z" />
<glyph unicode="-" horiz-adv-x="700" d="M162 481l33 146h600l-35 -146h-598z" />
<glyph unicode="." horiz-adv-x="571" d="M172 0l64 268h225l-62 -268h-227z" />
<glyph unicode="/" horiz-adv-x="849" d="M-66 -229l1184 1943h139l-1183 -1943h-140z" />
<glyph unicode="0" horiz-adv-x="1570" d="M276 573q0 121 30 243t86.5 234.5t134 211t174 170t208 113.5t234.5 42q133 0 229 -49t158.5 -131t92.5 -189.5t30 -224.5q0 -182 -65.5 -362t-182.5 -325.5t-275 -235.5t-342 -90q-135 0 -232 49t-158.5 132t-91.5 190.5t-30 221.5zM514 598q0 -84 18.5 -157.5 t57.5 -129t99.5 -87t141.5 -31.5q123 0 229.5 70.5t186.5 182t125 250t45 273.5q0 86 -19.5 159.5t-58.5 128t-99 86t-140 31.5q-123 0 -229.5 -70.5t-186.5 -182t-125 -250t-45 -273.5z" />
<glyph unicode="1" horiz-adv-x="919" d="M270 1028l813 559h29l-367 -1587h-237l272 1174l-434 -300z" />
<glyph unicode="2" horiz-adv-x="1310" d="M96 0l6 27q311 213 520 375.5t334 293.5t177.5 236.5t52.5 204.5q0 115 -66.5 176t-214.5 61q-106 0 -201.5 -33.5t-201.5 -99.5l-43 182q117 72 241.5 118t288.5 46q223 0 337 -94t114 -274q0 -119 -50.5 -235t-157 -236.5t-270 -253t-391.5 -281.5h656l-49 -213h-1082z " />
<glyph unicode="3" horiz-adv-x="1347" d="M170 236l145 149q59 -86 151.5 -139t233.5 -53q104 0 186.5 28.5t139.5 76.5t88 109.5t31 129.5q0 98 -64.5 151t-187.5 53h-166l35 152h170q78 0 138 25.5t101 65.5t61.5 90t20.5 100q0 98 -73.5 149t-202.5 51q-98 0 -205.5 -30.5t-200.5 -90.5l-55 177 q113 72 240 114.5t274 42.5q209 0 330 -91t121 -251q0 -123 -71 -237.5t-206 -184.5q78 -39 122 -106.5t44 -177.5q0 -121 -55 -223.5t-150.5 -177.5t-221.5 -116.5t-265 -41.5q-96 0 -175 19t-141.5 54t-109.5 81t-82 102z" />
<glyph unicode="4" horiz-adv-x="1392" d="M137 410l6 26l1295 1151h26l-231 -1001h244l-41 -176h-242l-94 -410h-205l94 410h-852zM514 586h516l133 579z" />
<glyph unicode="5" horiz-adv-x="1400" d="M178 240l139 145q59 -96 166 -144t236 -48q115 0 205 36.5t153.5 98t96 142.5t32.5 169q0 78 -25.5 134t-70.5 92t-107.5 53.5t-134.5 17.5q-125 0 -241.5 -48t-229.5 -138l-24 16l270 801h926l-49 -213h-738l-118 -330q68 29 142.5 44t158.5 15q92 0 179 -22.5 t153.5 -71.5t106.5 -128t40 -193q0 -127 -52.5 -251t-150.5 -221.5t-237.5 -156.5t-313.5 -59q-195 0 -323.5 71.5t-188.5 188.5z" />
<glyph unicode="6" horiz-adv-x="1462" d="M246 487q0 106 24.5 229.5t74.5 246t126 235.5t177.5 199t230.5 138t284 52q129 0 242 -34.5t172 -88.5l-115 -178q-66 47 -157.5 67.5t-169.5 20.5q-109 0 -199 -35.5t-164 -97t-129 -143.5t-92 -176q109 72 231.5 117.5t264.5 45.5q94 0 176 -23.5t142 -73.5t95 -126 t35 -180q0 -135 -59.5 -262t-164 -225.5t-243.5 -156.5t-299 -58q-225 0 -354 125.5t-129 381.5zM483 565q0 -193 76 -282.5t223 -89.5q100 0 188.5 38.5t153 103t101.5 149.5t37 175q0 70 -22.5 121t-61.5 84t-92.5 48.5t-112.5 15.5q-113 0 -237 -46t-230 -112 q-23 -106 -23 -205z" />
<glyph unicode="7" horiz-adv-x="1198" d="M201 0l954 1354h-784l49 213h1108l-6 -29l-1071 -1538h-250z" />
<glyph unicode="8" horiz-adv-x="1380" d="M186 354q0 98 41 180t110 148t156 115t179 84q-88 41 -148.5 105t-60.5 179q0 102 50 181t133 132.5t188.5 81t216.5 27.5q82 0 158.5 -16.5t136 -53t95.5 -95t36 -144.5q0 -84 -34 -147.5t-88.5 -111.5t-122 -83t-134.5 -59q57 -27 110.5 -62t93 -80t64.5 -103.5 t25 -129.5q0 -113 -59.5 -209t-158 -166t-227.5 -108.5t-268 -38.5q-109 0 -199 24.5t-155.5 71.5t-101.5 117.5t-36 160.5zM428 428q0 -115 78 -175t217 -60q88 0 169 24.5t142.5 67.5t98 103t36.5 132q0 59 -25.5 103.5t-67.5 76t-96 56t-114 47.5q-80 -25 -158.5 -56.5 t-140 -75.5t-100.5 -103.5t-39 -139.5zM655 1157q0 -47 20.5 -80t54.5 -55.5t79 -38.5t94 -33q59 16 125 39t120 55.5t90 78.5t36 108q0 92 -77 135t-187 43q-78 0 -142.5 -18.5t-111.5 -52t-74 -80t-27 -101.5z" />
<glyph unicode="9" horiz-adv-x="1439" d="M283 864q0 156 62.5 288t171 228.5t253.5 151.5t311 55q125 0 218.5 -31.5t155 -90t91 -139.5t29.5 -179q0 -143 -59.5 -297t-162 -304.5t-243.5 -289.5t-303 -256h-281q186 123 341 268.5t266 298.5q-90 -47 -201 -81.5t-234 -34.5q-211 0 -313 109.5t-102 303.5z M522 913q0 -133 78 -205.5t234 -72.5q111 0 215 35t202 94q41 86 62.5 167t21.5 159q0 135 -70.5 209.5t-226.5 74.5q-104 0 -197 -33.5t-164 -95t-113 -146.5t-42 -186z" />
<glyph unicode=":" horiz-adv-x="571" d="M199 119l64 268h225l-62 -268h-227zM199 119zM332 696l64 268h225l-62 -268h-227z" />
<glyph unicode=";" horiz-adv-x="571" d="M154 0zM154 -180l98 299h-53l64 268h225l-10 -37l-230 -530h-94zM332 696l64 268h225l-62 -268h-227z" />
<glyph unicode="&#x3c;" horiz-adv-x="1572" d="M471 791l6 26l1098 457l-35 -150l-786 -319l639 -320l-35 -149z" />
<glyph unicode="=" horiz-adv-x="1570" d="M395 461l33 137h991l-33 -137h-991zM522 1012l33 137h991l-33 -137h-991z" />
<glyph unicode="&#x3e;" horiz-adv-x="1570" d="M367 336l34 149l787 320l-639 319l35 150l884 -457l-6 -26z" />
<glyph unicode="?" horiz-adv-x="1075" d="M340 0l61 268h228l-62 -268h-227zM371 1434q96 61 215 107t268 46q211 0 313.5 -96t102.5 -260q0 -109 -41 -187.5t-103.5 -139t-137.5 -110t-144.5 -99.5t-122.5 -106.5t-74 -131.5h-174q20 86 70.5 150.5t115 116.5t133 99t126 99.5t94.5 115t37 146.5 q0 102 -63.5 161.5t-201.5 59.5q-113 0 -204 -38t-168 -91z" />
<glyph unicode="@" horiz-adv-x="1599" d="M201 303q0 186 66.5 367.5t191.5 326t303 233.5t401 89q137 0 229.5 -36t141.5 -98.5t59.5 -147.5t-12.5 -183l-154 -668h-139l19 76q-68 -39 -138.5 -60.5t-146.5 -21.5q-125 0 -191.5 63.5t-66.5 194.5q0 84 28.5 162t82 137.5t131 95t176.5 35.5q145 0 250 -80l16 66 q39 158 -42 248t-276 90q-182 0 -324 -77t-241.5 -200.5t-152 -277.5t-52.5 -307q0 -117 32 -214.5t99.5 -167t171 -107.5t244.5 -38q150 0 303.5 49.5t276.5 163.5l61 -98q-125 -129 -302 -195.5t-376 -66.5q-170 0 -295.5 48t-208.5 134t-124 205t-41 260zM907 465 q0 -86 44 -127t122 -41q61 0 129 23.5t131 58.5l70 301q-53 33 -106.5 51.5t-112.5 18.5q-66 0 -117 -24t-87 -63.5t-54.5 -91t-18.5 -106.5z" />
<glyph unicode="A" horiz-adv-x="1605" d="M27 0l1126 1587h33l393 -1587h-254l-90 406h-678l-276 -406h-254zM668 565h532l-131 588z" />
<glyph unicode="B" horiz-adv-x="1507" d="M172 0l363 1567h729q102 0 173.5 -25.5t118 -71t68 -108t21.5 -133.5q0 -147 -74 -246.5t-191 -153.5q68 -39 113 -109.5t45 -174.5q0 -98 -43 -196.5t-120 -175.5t-185.5 -125t-239.5 -48h-778zM457 209h508q76 0 139 29.5t108 79t70 110.5t25 127q0 92 -51.5 146.5 t-149.5 54.5h-524zM614 899h512q63 0 114.5 22.5t87.5 60.5t55.5 87t19.5 102q0 80 -49 132.5t-158 52.5h-477z" />
<glyph unicode="C" horiz-adv-x="1658" d="M270 621q0 207 82 384t222.5 306t325.5 202.5t392 73.5q193 0 336.5 -60.5t239.5 -158.5l-180 -166q-82 78 -192 125t-249 47q-150 0 -284 -55t-234 -152.5t-158.5 -229.5t-58.5 -284q0 -115 33 -200.5t93 -143t142 -87t181 -29.5q74 0 149.5 16t145 48t131 78t110.5 105 l141 -131q-68 -86 -151.5 -147.5t-176.5 -102.5t-192.5 -60t-197.5 -19q-147 0 -268.5 43t-205.5 125.5t-130 201.5t-46 271z" />
<glyph unicode="D" horiz-adv-x="1638" d="M172 0l363 1567h563q174 0 296 -49.5t196.5 -130t108.5 -187t34 -223.5q0 -100 -25 -213t-77 -221.5t-132 -206.5t-190.5 -173t-253 -119t-318.5 -44h-565zM459 213h334q182 0 314 68.5t218 175t127 235.5t41 250q0 90 -23.5 166t-76 130t-135 85t-201.5 31h-334z" />
<glyph unicode="E" horiz-adv-x="1411" d="M172 0l363 1567h1099l-49 -213h-862l-105 -449h855l-48 -203h-854l-110 -489h866l-49 -213h-1106z" />
<glyph unicode="F" horiz-adv-x="1331" d="M172 0l363 1567h1054l-49 -213h-817l-115 -498h809l-47 -201h-809l-151 -655h-238z" />
<glyph unicode="G" horiz-adv-x="1771" d="M270 618q0 147 41 276.5t114 237t171 192.5t214 143.5t243 89t256 30.5q170 0 315 -50t244 -140l-156 -170q-86 76 -201.5 111.5t-236.5 35.5q-150 0 -288 -53t-243.5 -148.5t-168 -228.5t-62.5 -293q0 -217 120 -337.5t337 -120.5q125 0 233.5 39.5t191.5 109.5t138 164 t78 201h-475l41 176h675q0 -45 -10 -103q-35 -209 -126 -360.5t-216 -249.5t-274.5 -144t-302.5 -46q-147 0 -268.5 41.5t-206.5 122.5t-131 200t-46 274z" />
<glyph unicode="H" horiz-adv-x="1595" d="M172 0l363 1567h237l-154 -660h779l151 660h238l-363 -1567h-237l162 698h-777l-161 -698h-238z" />
<glyph unicode="I" horiz-adv-x="583" d="M172 0l363 1567h237l-362 -1567h-238z" />
<glyph unicode="J" horiz-adv-x="1013" d="M45 66l66 192q80 -39 143 -52t115 -13q131 0 231 73.5t141 245.5l244 1055h236l-256 -1108q-29 -127 -86.5 -217t-134 -148.5t-171 -86t-196.5 -27.5q-86 0 -170 19t-162 67z" />
<glyph unicode="K" horiz-adv-x="1558" d="M172 0l363 1567h237l-164 -709l953 709h288l-706 -529l370 -1038h-264l-321 877l-381 -283l-137 -594h-238z" />
<glyph unicode="L" horiz-adv-x="1234" d="M172 0l363 1567h237l-313 -1354h766l-49 -213h-1004z" />
<glyph unicode="M" horiz-adv-x="1951" d="M172 0l367 1587h28l486 -1200l1065 1200h30l-366 -1587h-226l207 899l-622 -727h-2l-164 -192h-29l-340 919l-209 -899h-225z" />
<glyph unicode="N" horiz-adv-x="1718" d="M172 0l367 1587h28l860 -1106l250 1086h230l-367 -1587h-27l-860 1107l-252 -1087h-229z" />
<glyph unicode="O" d="M270 602q0 178 74 354.5t206 316.5t313.5 227t396.5 87q164 0 283.5 -51t198.5 -138t116.5 -200t37.5 -235q0 -178 -73.5 -353.5t-205.5 -315.5t-314.5 -227t-397.5 -87q-166 0 -285.5 51t-197.5 137t-115 198.5t-37 235.5zM512 637q0 -96 27.5 -177t83 -140.5t137.5 -93 t188 -33.5q147 0 276.5 62t225.5 164.5t151.5 233.5t55.5 271q0 98 -29 181t-84 142.5t-137 93t-188 33.5q-150 0 -279 -64.5t-224 -169t-149.5 -236.5t-54.5 -267z" />
<glyph unicode="P" horiz-adv-x="1413" d="M172 0l363 1567h700q92 0 160.5 -28t113.5 -77t67.5 -115.5t22.5 -144.5q0 -104 -38.5 -209.5t-112.5 -189.5t-182.5 -137.5t-247.5 -53.5h-467l-141 -612h-238zM596 811h459q76 0 134 31.5t98 83t61.5 112t21.5 119.5q0 82 -44 141.5t-144 59.5h-459z" />
<glyph unicode="Q" d="M276 627q0 174 73 345t204 308t311 222t396 85q164 0 284.5 -50t199.5 -135t116.5 -195.5t37.5 -231.5q0 -117 -34.5 -235.5t-98 -226t-153.5 -201t-203 -160.5l143 -336h-241l-105 243q-70 -23 -142.5 -34t-150.5 -11q-166 0 -285.5 51.5t-198.5 136.5t-116 195.5 t-37 229.5zM516 662q0 -92 26.5 -171t82 -138.5t137.5 -93.5t192 -34q86 0 172 23l-131 309h242l92 -217q76 49 136.5 116.5t103.5 144.5t65.5 163t22.5 172q0 92 -27.5 173t-82 139.5t-137.5 92t-193 33.5q-154 0 -282 -62.5t-221 -163.5t-145.5 -228t-52.5 -258z" />
<glyph unicode="R" horiz-adv-x="1513" d="M172 0l363 1567h690q96 0 164.5 -28t111.5 -75t63.5 -109.5t20.5 -131.5q0 -80 -24.5 -160t-72.5 -150.5t-121 -126t-169 -84.5l281 -702h-262l-261 678h-391l-155 -678h-238zM604 840h410q80 0 141.5 30.5t101 77.5t60 105.5t20.5 113.5q0 82 -47 138.5t-155 56.5h-410z " />
<glyph unicode="S" horiz-adv-x="1445" d="M137 125l92 190q59 -35 133 -60.5t149 -41.5t147.5 -23.5t132.5 -7.5q106 0 186 22.5t133 61.5t78.5 91.5t25.5 109.5q0 82 -47 123t-128 66.5t-189.5 51t-228.5 74.5q-55 23 -100.5 49.5t-77 61.5t-49 81t-17.5 111q0 115 53 208t146.5 159t222.5 100.5t280 34.5 q309 0 537 -143l-92 -182q-106 59 -238.5 90.5t-257.5 31.5q-195 0 -304.5 -74.5t-109.5 -199.5q0 -41 12.5 -69.5t35 -49t54.5 -35t68 -26.5q123 -43 233.5 -71t219.5 -73q51 -23 92 -46t69.5 -56t43 -77t14.5 -105q0 -111 -48 -207t-139 -166t-223.5 -109.5t-297.5 -39.5 q-63 0 -143.5 7t-162.5 23.5t-161.5 44t-143.5 70.5z" />
<glyph unicode="T" horiz-adv-x="1351" d="M373 1354l49 213h1231l-49 -213h-498l-313 -1354h-238l311 1354h-493z" />
<glyph unicode="U" horiz-adv-x="1566" d="M297 621l217 946h240l-222 -955q-22 -89 -22 -160v-20q4 -78 38 -131t102.5 -80.5t176.5 -27.5q211 0 331 103t169 316l219 955h232l-219 -944q-78 -332 -277 -487.5t-502 -155.5q-322 0 -438 164q-72 102 -73 260q0 98 28 217z" />
<glyph unicode="V" horiz-adv-x="1605" d="M389 1567h250l260 -1141l780 1141h260l-1124 -1587h-33z" />
<glyph unicode="W" horiz-adv-x="2297" d="M395 1567h240l115 -1080l761 1100h27l223 -1085l623 1065h242l-945 -1587h-28l-234 1171l-811 -1171h-26z" />
<glyph unicode="X" horiz-adv-x="1531" d="M35 0l778 823l-373 744h258l306 -604l583 604h250l-745 -779l397 -788h-260l-328 649l-614 -649h-252z" />
<glyph unicode="Y" horiz-adv-x="1579" d="M375 1567h258l364 -623l654 623h276l-840 -801l-176 -766h-237l176 760z" />
<glyph unicode="Z" horiz-adv-x="1538" d="M88 0l6 27l1256 1327h-930l49 213h1348l-9 -29l-1249 -1325h930l-49 -213h-1352z" />
<glyph unicode="[" horiz-adv-x="872" d="M207 -414l553 2392h471l-31 -135h-328l-489 -2119h328l-31 -138h-473z" />
<glyph unicode="\" horiz-adv-x="849" d="M383 1714h139l287 -1943h-139z" />
<glyph unicode="]" horiz-adv-x="870" d="M0 -414l33 138h327l490 2119h-328l31 135h473l-553 -2392h-473z" />
<glyph unicode="^" horiz-adv-x="1572" d="M449 625l688 962h26l248 -962h-156l-163 698l-484 -698h-159z" />
<glyph unicode="_" horiz-adv-x="995" d="M-61 -266l32 137h994l-31 -137h-995z" />
<glyph unicode="`" horiz-adv-x="792" d="M457 1298h188l215 -329h-153z" />
<glyph unicode="a" horiz-adv-x="1140" d="M127 190q0 51 18.5 101.5t58.5 91.5t105.5 70.5t159.5 42.5l455 61q4 16 6 31.5t2 32.5q0 66 -51.5 96.5t-173.5 30.5q-84 0 -176.5 -16.5t-211.5 -59.5l5 139q135 55 242.5 70.5t191.5 15.5q217 0 305 -60.5t88 -174.5q0 -16 -2 -39t-8 -48l-135 -575h-203l20 90 q-106 -49 -209.5 -79.5t-214.5 -30.5q-272 0 -272 210zM338 229q0 -59 39 -89.5t125 -30.5q82 0 168 24.5t172 61.5l59 262l-375 -62q-90 -16 -139 -55t-49 -111z" />
<glyph unicode="b" horiz-adv-x="1306" d="M172 0l363 1567h210l-180 -781q35 18 82 38t101.5 36.5t113 26.5t113.5 10q86 0 148.5 -27.5t102.5 -73.5t59.5 -109.5t19.5 -133.5q0 -98 -36 -200.5t-103.5 -185.5t-165 -135t-220.5 -52q-55 0 -110.5 10t-105.5 27.5t-92 37t-73 37.5l-20 -92h-207zM438 233 q23 -14 56.5 -30.5t74.5 -30.5t86 -24.5t88 -10.5q80 0 143.5 33t108.5 87t70 121.5t25 137.5q0 100 -51.5 161.5t-159.5 61.5q-43 0 -92.5 -10t-96.5 -24.5t-88 -31t-72 -30.5z" />
<glyph unicode="c" horiz-adv-x="1081" d="M203 344q0 121 53 222.5t139 175t196.5 114.5t227.5 41q98 0 187.5 -29.5t152.5 -87.5l-119 -114q-51 43 -112.5 61t-120.5 18q-80 0 -152.5 -29.5t-129 -79.5t-89.5 -120t-33 -149q0 -104 60.5 -170t189.5 -66q92 0 164 36t131 97l94 -82q-76 -88 -187.5 -145 t-258.5 -57q-102 0 -176 28.5t-122 77.5t-71.5 115.5t-23.5 142.5z" />
<glyph unicode="d" horiz-adv-x="1302" d="M199 322q0 102 37.5 205.5t107.5 185.5t169 133t224 51q55 0 109.5 -10t101.5 -26.5t86 -36t66 -38.5l180 781h211l-361 -1567h-206l22 92q-41 -18 -93 -38.5t-109.5 -37t-116 -26.5t-111.5 -10q-84 0 -144.5 27.5t-99.5 74.5t-56 108.5t-17 131.5zM414 356 q0 -102 52 -160.5t157 -58.5q43 0 92 10.5t96 24.5t90 30.5t72 30.5l94 410q-23 14 -56.5 30.5t-73.5 31t-84 24.5t-89 10q-80 0 -144.5 -32.5t-110.5 -87t-70.5 -123t-24.5 -140.5z" />
<glyph unicode="e" horiz-adv-x="1202" d="M201 338q0 98 43 197.5t122.5 180.5t194.5 131t258 50q104 0 179 -27.5t121 -74.5t67.5 -108.5t21.5 -129.5q0 -84 -28 -170h-770v-25q0 -104 66.5 -170.5t223.5 -66.5q150 0 306 59l12 -129q-59 -31 -162.5 -53t-212.5 -22q-121 0 -206 29.5t-137 79.5t-75.5 114.5 t-23.5 134.5zM430 487h569q4 18 6.5 36t2.5 34q0 84 -51.5 140.5t-168.5 56.5q-135 0 -228 -77t-130 -190z" />
<glyph unicode="f" horiz-adv-x="790" d="M217 0l168 731h-149l34 143h148l92 396q20 90 59 150.5t92.5 97t118 53t135.5 16.5q70 0 122.5 -12t92.5 -33l-81 -147q-53 35 -129 35q-72 0 -126.5 -39t-78.5 -144l-86 -373h278l-35 -143h-276l-168 -731h-211z" />
<glyph unicode="g" horiz-adv-x="1251" d="M113 -344l63 145q78 -37 161 -53t161 -16q92 0 160.5 20.5t115.5 55t75 83t40 101.5l31 133q-35 -16 -81 -34.5t-99.5 -34t-110 -26t-109.5 -10.5q-86 0 -147.5 27t-101.5 71t-58 104.5t-18 127.5q0 94 34.5 191.5t100 176.5t162 129t219.5 50q55 0 108 -10t100.5 -25.5 t88.5 -35t71 -38.5l21 86h205l-207 -894q-18 -80 -63.5 -154t-119 -129t-177 -89t-240.5 -34q-111 0 -214.5 21.5t-170.5 60.5zM408 375q0 -98 50 -154.5t156 -56.5q43 0 89.5 9t91.5 22.5t86 29t69 27.5l90 393q-23 14 -55.5 30.5t-72.5 31t-84 23.5t-87 9 q-78 0 -140 -31.5t-105 -84t-65.5 -118t-22.5 -130.5z" />
<glyph unicode="h" horiz-adv-x="1277" d="M172 0l363 1567h210l-178 -781q37 18 87.5 39t109.5 36.5t125.5 25.5t134.5 10q131 0 198.5 -46t67.5 -163q0 -61 -18 -143l-125 -545h-209l119 514q12 51 12 92q0 74 -41 103.5t-119 29.5q-49 0 -103 -9t-106.5 -24.5t-96.5 -34t-73 -36.5l-147 -635h-211z" />
<glyph unicode="i" horiz-adv-x="557" d="M174 0l201 874h213l-203 -874h-211zM428 1128l66 277h219l-64 -277h-221z" />
<glyph unicode="j" horiz-adv-x="655" d="M-152 -383l68 145q25 -16 58.5 -23t68.5 -7q72 0 128 41t81 147l221 954h211l-227 -983q-23 -92 -63 -152.5t-95 -97t-120.5 -52t-135.5 -15.5q-66 0 -114 11.5t-81 31.5zM524 1128l66 277h221l-63 -277h-224z" />
<glyph unicode="k" horiz-adv-x="1214" d="M172 0l363 1567h210l-247 -1082l557 389h254l-412 -282l260 -592h-225l-211 471l-270 -186l-66 -285h-213z" />
<glyph unicode="l" horiz-adv-x="557" d="M172 0l363 1567h210l-360 -1567h-213z" />
<glyph unicode="m" horiz-adv-x="1839" d="M160 0l202 874h205l-20 -90q76 41 184.5 77t231.5 36q104 0 159.5 -33t65.5 -108q121 76 230.5 108.5t213.5 32.5q113 0 171.5 -39t58.5 -137q0 -47 -17 -119l-139 -602h-211l131 571q4 20 6 37t2 29q0 57 -30.5 79.5t-90.5 22.5q-78 0 -164.5 -29.5t-168.5 -82.5 l-144 -627h-211l131 571q4 20 6.5 38t2.5 30q0 53 -29 76.5t-92 23.5q-43 0 -88 -9t-89 -23.5t-83 -34t-66 -37.5l-145 -635h-213z" />
<glyph unicode="n" horiz-adv-x="1267" d="M160 0l202 874h205l-20 -90q39 20 92 41t113.5 36.5t127 25.5t134.5 10q131 0 198.5 -46t67.5 -163q0 -61 -18 -143l-127 -545h-209l118 514q12 51 13 92q0 74 -41 103.5t-119 29.5q-49 0 -103.5 -9t-106.5 -24.5t-96 -34t-73 -36.5l-145 -635h-213z" />
<glyph unicode="o" horiz-adv-x="1206" d="M203 342q0 100 44 199.5t124 178.5t190.5 128t243.5 49q102 0 178 -29.5t125 -81t72.5 -117t23.5 -137.5q0 -100 -45 -199.5t-125 -177t-190.5 -126.5t-241.5 -49q-102 0 -177 29.5t-124 79.5t-73.5 115.5t-24.5 137.5zM414 358q0 -98 54 -162.5t165 -64.5q78 0 144.5 34 t114.5 88t75.5 122.5t27.5 140.5q0 98 -54 163.5t-167 65.5q-78 0 -143.5 -33.5t-113.5 -88t-75.5 -124t-27.5 -141.5z" />
<glyph unicode="p" horiz-adv-x="1294" d="M66 -414l296 1288h207l-22 -92q39 18 91 39t108.5 38.5t116 27.5t112.5 10q84 0 144.5 -27.5t98 -74.5t56 -108.5t18.5 -131.5q0 -102 -36.5 -205.5t-106.5 -185.5t-170 -133t-225 -51q-55 0 -109.5 10t-101.5 26.5t-85 35t-65 36.5l-117 -502h-210zM426 231 q23 -14 55.5 -30.5t72.5 -30.5t84 -23.5t89 -9.5q80 0 144.5 33t110.5 86t71.5 121.5t25.5 140.5q0 100 -51 160.5t-158 60.5q-45 0 -94 -10t-97 -25.5t-89 -32t-70 -30.5z" />
<glyph unicode="q" horiz-adv-x="1290" d="M199 322q0 98 35.5 200.5t103.5 185.5t165 136t222 53q55 0 109.5 -10t103.5 -27.5t92 -38t74 -39.5l20 92h207l-297 -1288h-213l117 502q-35 -18 -83 -36.5t-102.5 -35t-111.5 -26.5t-113 -10q-86 0 -148.5 26.5t-102 73.5t-59 108.5t-19.5 133.5zM414 358 q0 -102 52 -161.5t161 -59.5q43 0 92 9.5t95 23.5t87 30.5t70 30.5l94 410q-23 14 -56.5 30.5t-74.5 32t-86 25.5t-90 10q-78 0 -141.5 -32.5t-108.5 -86t-69.5 -122t-24.5 -140.5z" />
<glyph unicode="r" horiz-adv-x="1034" d="M160 0l202 874h203l-35 -149q82 80 179.5 126t203.5 46q84 0 152 -28.5t102 -86.5l-82 -133q-35 49 -88 69.5t-118 20.5q-106 0 -196.5 -46t-184.5 -142l-127 -551h-211z" />
<glyph unicode="s" horiz-adv-x="1091" d="M117 59l59 136q43 -18 97.5 -33t112.5 -25t114.5 -15t101.5 -5q51 0 100.5 8t88 25.5t63.5 45t25 68.5q0 43 -30 61.5t-87 29t-140 22.5t-190 41q-33 8 -65.5 20.5t-58 33t-42 52t-16.5 78.5q0 70 38 125t104.5 93t158.5 57.5t201 19.5q115 0 217 -20.5t180 -57.5 l-68 -133q-80 33 -174 51.5t-184 18.5q-123 0 -200 -36t-77 -104q0 -45 35 -65.5t94.5 -32.5t141.5 -23.5t178 -37.5q82 -23 129 -55.5t47 -112.5q0 -78 -45 -136.5t-120 -97.5t-170 -58.5t-195 -19.5q-66 0 -128.5 7.5t-117.5 19.5t-101.5 26.5t-76.5 28.5z" />
<glyph unicode="t" horiz-adv-x="788" d="M236 731l34 143h148l94 404h211l-94 -404h278l-35 -143h-276l-94 -407q-8 -35 -8 -68q0 -68 35.5 -93.5t95.5 -25.5q72 0 133 29l22 -135q-102 -51 -235 -51q-123 0 -197 51t-74 170q0 45 13 104l96 426h-147z" />
<glyph unicode="u" horiz-adv-x="1306" d="M231 193q0 59 19 137l125 544h211l-119 -516q-12 -55 -12 -94q0 -72 40 -99.5t117 -27.5q49 0 104.5 9.5t108 24.5t96.5 32.5t72 36.5l148 634h209l-203 -874h-203l21 90q-37 -20 -90.5 -39.5t-114 -35t-127 -25.5t-131.5 -10q-133 0 -202 48t-69 165z" />
<glyph unicode="v" horiz-adv-x="1118" d="M229 874h209l187 -589l452 589h215l-721 -894h-32z" />
<glyph unicode="w" horiz-adv-x="1552" d="M236 874h194l90 -561l459 584h29l163 -586l357 563h192l-590 -894h-26l-178 632l-500 -632h-29z" />
<glyph unicode="x" horiz-adv-x="1140" d="M39 0l524 463l-284 411h215l217 -313l352 313h223l-491 -434l307 -440h-217l-238 342l-385 -342h-223z" />
<glyph unicode="y" horiz-adv-x="1112" d="M55 -414l426 541l-252 747h207l191 -563l444 563h215l-1022 -1288h-209z" />
<glyph unicode="z" horiz-adv-x="1058" d="M88 0l6 27l727 692h-547l35 155h867l-7 -26l-723 -690h555l-36 -158h-877z" />
<glyph unicode="{" horiz-adv-x="870" d="M285 737l32 137h89q53 0 96 41t59 115l141 615q41 174 151 253.5t257 79.5h121l-33 -135h-94q-104 0 -170 -59.5t-92 -173.5l-144 -604q-14 -59 -47 -112.5t-110 -86.5q41 -20 58 -55t17 -76q0 -16 -2 -33.5t-6 -34.5l-147 -651q-6 -23 -8 -44.5t-2 -37.5 q0 -152 163 -151h95l-31 -138h-121q-123 0 -194.5 55.5t-71.5 176.5q0 29 4 52.5t10 49.5l152 662q6 31 6 55q0 51 -24.5 75.5t-63.5 24.5h-90z" />
<glyph unicode="|" horiz-adv-x="827" d="M291 -211l459 1989h145l-459 -1989h-145z" />
<glyph unicode="}" horiz-adv-x="870" d="M0 -414l33 138h94q207 0 262 233l154 651q16 66 51 117t108 82q-47 23 -61 58.5t-14 72.5q0 14 2 31.5t6 36.5l137 604q4 23 7 41t3 39q0 72 -40 112.5t-126 40.5h-94l31 135h121q123 0 193.5 -55t70.5 -172q0 -49 -12 -106l-142 -615q-6 -31 -6 -55q0 -100 88 -101h90 l-30 -137h-90q-53 0 -96.5 -41t-59.5 -114l-152 -662q-41 -172 -150.5 -253t-256.5 -81h-121z" />
<glyph unicode="~" horiz-adv-x="1570" d="M467 780q78 68 158 105t170 37q57 0 103 -13.5t99 -36.5q51 -20 92 -34.5t93 -14.5q57 0 107 22.5t122 76.5l62 -95q-72 -61 -152 -101t-176 -40q-55 0 -102.5 13.5t-100.5 35.5q-47 20 -90 34.5t-96 14.5t-105.5 -21.5t-126.5 -78.5z" />
<glyph unicode="&#xa1;" horiz-adv-x="571" d="M74 -414l291 1110h155l-221 -1110h-225zM375 885l61 268h228l-64 -268h-225z" />
<glyph unicode="&#xa2;" horiz-adv-x="1572" d="M356 657q0 154 61.5 286t165 230.5t242 159t291.5 70.5l58 248h112l-57 -248q129 -8 234.5 -51t183.5 -115l-154 -131q-59 59 -138 90t-165 37l-209 -905q209 23 365 190l124 -102q-100 -121 -239 -184.5t-289 -73.5l-55 -242h-115l55 242q-111 8 -197.5 46t-148 102.5 t-93.5 153.5t-32 197zM563 682q0 -156 80 -247t225 -107l207 903q-104 -12 -197.5 -57.5t-163 -118t-110.5 -167.5t-41 -206z" />
<glyph unicode="&#xa3;" horiz-adv-x="1570" d="M221 197q0 61 24.5 117.5t69.5 101.5t108.5 71.5t143.5 26.5q68 0 121 -19.5t98 -48.5q2 16 3.5 33t1.5 35q0 47 -9.5 93t-23.5 91h-367l29 125h293q-23 59 -39.5 123t-16.5 133q0 106 43 199.5t119 162t181.5 107.5t230.5 39q115 0 213 -34.5t158 -110.5l-125 -168 q-43 51 -110 75.5t-138 24.5q-66 0 -128.5 -20.5t-110.5 -61.5t-77.5 -102.5t-29.5 -140.5q0 -53 11 -109.5t28 -116.5h446l-29 -125h-385q10 -43 16.5 -85t6.5 -85q0 -53 -11.5 -109.5t-27.5 -105.5q49 -49 105.5 -84.5t146.5 -35.5q125 0 233 83l33 -176 q-74 -66 -156.5 -93t-154.5 -27q-109 0 -180.5 49t-124.5 118q-76 -86 -170.5 -126.5t-192.5 -40.5q-117 0 -186.5 56t-69.5 161zM377 225q0 -53 36 -79.5t95 -26.5q86 0 143.5 47t91.5 119q-35 43 -75.5 69.5t-102.5 26.5q-78 0 -133 -44t-55 -112z" />
<glyph unicode="&#xa4;" horiz-adv-x="1572" d="M303 297l219 174q-41 78 -41 174t42 191.5t118 173.5l-133 166l117 98l135 -172q63 39 137 60.5t158 21.5q86 0 149.5 -22.5t110.5 -61.5l217 172l74 -98l-215 -168q23 -41 32 -84t9 -91q0 -98 -42 -193t-120 -173l135 -166l-119 -96l-137 170q-63 -37 -137 -57.5 t-160 -20.5q-82 0 -144.5 21.5t-107.5 60.5l-223 -178zM614 668q0 -49 16.5 -94.5t49.5 -81t84 -56t119 -20.5q90 0 166.5 35.5t132 92t86 127t30.5 140.5q0 49 -16 94t-50 81t-85 56.5t-119 20.5q-90 0 -166 -36t-131 -92t-86 -127t-31 -140z" />
<glyph unicode="&#xa5;" horiz-adv-x="1570" d="M369 227l28 123h351l49 213h-353l29 123h352l35 156l-368 725h249l275 -553l534 553h250l-702 -725l-35 -156h360l-28 -123h-361l-49 -213h361l-29 -123h-361l-51 -227h-237l51 227h-350z" />
<glyph unicode="&#xa6;" horiz-adv-x="827" d="M291 -211l180 782h147l-182 -782h-145zM569 995l181 783h147l-182 -783h-146z" />
<glyph unicode="&#xa7;" horiz-adv-x="1746" d="M29 -279l92 191q59 -35 133 -60.5t148.5 -42t147.5 -23.5t132 -7q106 0 186 22.5t133.5 61.5t79 91t25.5 109q0 82 -47 123t-128 67t-189.5 51.5t-229.5 74.5q-55 23 -100 49.5t-77 61t-49.5 81.5t-17.5 113q0 174 116 293t308 172q14 100 71.5 181t150 138.5t214 88 t263.5 30.5q309 0 536 -143l-92 -182q-106 59 -238.5 90.5t-257.5 31.5q-195 0 -304 -74.5t-109 -199.5q0 -41 12 -69.5t34.5 -49t54.5 -35t69 -26.5q123 -43 233.5 -71t218.5 -73q51 -23 92 -46t70 -56t43 -77t14 -105q0 -172 -111.5 -302t-316.5 -186q-16 -96 -71.5 -176 t-144.5 -138t-212 -91t-272 -33q-63 0 -143 7t-162 23.5t-162 44t-143 70.5zM506 707q0 -41 12 -70t34.5 -49.5t54.5 -34.5t69 -27q123 -43 235.5 -71.5t216.5 -71.5q74 -31 125.5 -69t73.5 -97q100 37 149.5 104.5t49.5 153.5q0 72 -37 110t-123 66q-68 20 -166 45 t-195.5 58.5t-178.5 81t-111 116.5q-100 -33 -154.5 -96t-54.5 -149z" />
<glyph unicode="&#xa8;" horiz-adv-x="1036" d="M434 1022l58 252h167l-57 -252h-168zM907 1022l60 252h168l-58 -252h-170z" />
<glyph unicode="&#xaa;" horiz-adv-x="731" d="M336 1059q0 78 56.5 134t168.5 75l232 37q6 27 6 49q0 45 -31 64.5t-100 19.5q-41 0 -83 -8.5t-108 -36.5l-16 80q78 37 138 47t108 10q115 0 167 -37t52 -113q0 -12 -2 -28.5t-6 -34.5l-89 -377h-114l12 57q-61 -33 -119.5 -52t-118.5 -19q-80 0 -116.5 35.5t-36.5 97.5 zM461 1077q0 -35 19.5 -53t68.5 -18q45 0 92 15t94 40l43 182l-180 -37q-137 -27 -137 -129z" />
<glyph unicode="&#xab;" horiz-adv-x="1132" d="M201 0zM201 414l6 22l457 410h143l-445 -434l250 -412h-143zM617 414l6 22l457 410h143l-445 -434l250 -412h-143z" />
<glyph unicode="&#xac;" horiz-adv-x="1337" d="M342 735l33 137h991l-201 -872h-145l168 735h-846z" />
<glyph unicode="&#xad;" horiz-adv-x="690" d="M156 481l33 146h600l-35 -146h-598zM156 481z" />
<glyph unicode="&#xaf;" horiz-adv-x="1062" d="M406 1081l26 113h752l-27 -113h-751z" />
<glyph unicode="&#xb0;" horiz-adv-x="757" d="M387 1327q0 63 27.5 126t78 113t119 80.5t150.5 30.5q63 0 109.5 -19.5t77 -51t46 -72.5t15.5 -86q0 -61 -28 -124.5t-78 -114t-118.5 -82t-150.5 -31.5q-63 0 -110.5 19.5t-78 51t-45 73.5t-14.5 87zM510 1350q-4 -66 30.5 -115t112.5 -49q49 0 90 20.5t72 54t49.5 75.5 t20.5 87q4 70 -33 117t-113 47q-47 0 -88 -19.5t-71.5 -52t-49 -75.5t-20.5 -90z" />
<glyph unicode="&#xb1;" horiz-adv-x="1572" d="M299 41l33 137h991l-33 -137h-991zM299 41zM463 753l33 137h423l95 412h145l-94 -412h422l-33 -137h-422l-94 -413h-146l95 413h-424z" />
<glyph unicode="&#xb2;" horiz-adv-x="892" d="M274 692zM275 692l4 14q166 113 283.5 200t192.5 155.5t110.5 127t35.5 113.5q0 127 -170 127q-53 0 -102 -14t-119 -53l-37 112q70 41 142.5 65.5t171.5 24.5q272 0 272 -213q0 -131 -106.5 -254.5t-335.5 -269.5h331l-30 -135h-643z" />
<glyph unicode="&#xb3;" horiz-adv-x="892" d="M309 680zM310 819l90 90q41 -51 97 -71.5t120 -20.5q117 0 185.5 52t68.5 120q0 47 -36 76.5t-110 29.5h-96l20 93h99q45 0 78.5 13t56 34.5t34 47t11.5 50.5q0 45 -40 71.5t-116 26.5q-61 0 -120.5 -17t-106.5 -48l-43 114q63 39 138 61.5t161 22.5q127 0 197.5 -51 t70.5 -141q0 -70 -40 -129t-107 -98q41 -23 65.5 -59t24.5 -95q0 -68 -34 -125t-91 -99t-132 -64.5t-157 -22.5q-117 0 -185.5 42t-102.5 97z" />
<glyph unicode="&#xb4;" horiz-adv-x="794" d="M379 969l358 329h201l-391 -329h-168z" />
<glyph unicode="&#xb6;" horiz-adv-x="1667" d="M338 1020q0 96 40 193.5t115.5 176t186.5 128t254 49.5h921l-458 -1981h-166l424 1835h-416l-424 -1835h-166l250 1082h-172q-104 0 -179 29.5t-121 78.5t-67.5 112.5t-21.5 131.5zM508 1044q0 -98 60.5 -165.5t193.5 -67.5h170l141 610h-170q-92 0 -165.5 -32.5 t-124 -87t-78 -122t-27.5 -135.5z" />
<glyph unicode="&#xb7;" horiz-adv-x="485" d="M293 698l64 268h225l-62 -268h-227zM293 698z" />
<glyph unicode="&#xb8;" horiz-adv-x="661" d="M98 -414l189 351h168l-213 -351h-144z" />
<glyph unicode="&#xb9;" horiz-adv-x="892" d="M453 692zM453 1272l532 292h25l-201 -872h-155l145 635l-301 -164z" />
<glyph unicode="&#xba;" horiz-adv-x="765" d="M381 1155q0 68 26.5 134.5t73.5 120.5t111.5 87t140.5 33q57 0 99 -19.5t69 -51.5t40 -74t13 -87q0 -68 -26.5 -134t-73.5 -119.5t-112.5 -86t-141.5 -32.5q-57 0 -98 18.5t-67.5 50t-40 73.5t-13.5 87zM502 1165q0 -59 28.5 -102t87.5 -43q45 0 84 23.5t68 62.5t46.5 87 t17.5 97q0 61 -30 103.5t-89 42.5q-45 0 -84 -25t-67.5 -63.5t-45 -87t-16.5 -95.5z" />
<glyph unicode="&#xbb;" horiz-adv-x="1134" d="M106 0l445 434l-250 412h143l271 -410l-6 -22l-461 -414h-142zM106 0zM522 0l445 434l-250 412h143l271 -410l-6 -22l-461 -414h-142z" />
<glyph unicode="&#xbc;" horiz-adv-x="2142" d="M418 0l1597 1647l80 -76l-1599 -1649zM418 0zM453 1272l532 292h25l-201 -872h-155l145 635l-301 -164zM1284 215l4 14l747 643h17l-127 -550h133l-25 -107h-133l-49 -215h-127l49 215h-489zM1513 322h285l67 296z" />
<glyph unicode="&#xbd;" horiz-adv-x="2142" d="M418 0l1597 1647l80 -76l-1599 -1649zM418 0zM453 1272l532 292h25l-201 -872h-155l145 635l-301 -164zM1364 0l4 14q166 113 283.5 200t192.5 155.5t110.5 127t35.5 113.5q0 127 -170 127q-53 0 -102 -14t-119 -53l-37 112q70 41 142.5 65.5t171.5 24.5q272 0 272 -213 q0 -131 -106.5 -254.5t-335.5 -269.5h331l-30 -135h-643z" />
<glyph unicode="&#xbe;" horiz-adv-x="2144" d="M309 0zM310 819l90 90q41 -51 97 -71.5t120 -20.5q117 0 185.5 52t68.5 120q0 47 -36 76.5t-110 29.5h-96l20 93h99q45 0 78.5 13t56 34.5t34 47t11.5 50.5q0 45 -40 71.5t-116 26.5q-61 0 -120.5 -17t-106.5 -48l-43 114q63 39 138 61.5t161 22.5q127 0 197.5 -51 t70.5 -141q0 -70 -40 -129t-107 -98q41 -23 65.5 -59t24.5 -95q0 -68 -34 -125t-91 -99t-132 -64.5t-157 -22.5q-117 0 -185.5 42t-102.5 97zM418 0l1597 1647l80 -76l-1599 -1649zM1284 215l4 14l747 643h17l-127 -550h133l-25 -107h-133l-49 -215h-127l49 215h-489z M1513 322h285l67 296z" />
<glyph unicode="&#xbf;" horiz-adv-x="1075" d="M49 -70q0 109 41 188t103.5 139t137.5 109.5t144.5 99.5t122.5 106.5t74 132.5h174q-20 -86 -70.5 -151t-115 -117t-133 -99t-126 -99.5t-94.5 -115t-37 -146.5q0 -102 63.5 -161.5t201.5 -59.5q113 0 203.5 38t168.5 91l41 -157q-96 -61 -215 -107.5t-268 -46.5 q-211 0 -313.5 96.5t-102.5 259.5zM690 893l62 268h227l-61 -268h-228z" />
<glyph unicode="&#xc0;" horiz-adv-x="1605" d="M27 0l1126 1587h33l393 -1587h-254l-90 406h-678l-276 -406h-254zM27 0zM668 565h532l-131 588zM918 2017h188l215 -329h-153z" />
<glyph unicode="&#xc1;" horiz-adv-x="1605" d="M27 0l1126 1587h33l393 -1587h-254l-90 406h-678l-276 -406h-254zM27 0zM668 565h532l-131 588zM1061 1688l358 329h201l-391 -329h-168z" />
<glyph unicode="&#xc2;" horiz-adv-x="1605" d="M27 0l1126 1587h33l393 -1587h-254l-90 406h-678l-276 -406h-254zM27 0zM668 565h532l-131 588zM846 1688l409 329h27l258 -329h-156l-143 188l-227 -188h-168z" />
<glyph unicode="&#xc3;" horiz-adv-x="1605" d="M27 0l1126 1587h33l393 -1587h-254l-90 406h-678l-276 -406h-254zM27 0zM668 565h532l-131 588zM830 1841q57 63 118.5 103.5t137.5 40.5q41 0 78.5 -14.5t93.5 -49.5q37 -23 69.5 -38t75.5 -15q45 0 86 20.5t94 73.5l56 -74q-55 -66 -118 -104.5t-138 -38.5 q-41 0 -80 14.5t-92 49.5q-39 27 -72 40t-74 13q-45 0 -85 -21.5t-93 -77.5z" />
<glyph unicode="&#xc4;" horiz-adv-x="1605" d="M27 0l1126 1587h33l393 -1587h-254l-90 406h-678l-276 -406h-254zM27 0zM668 565h532l-131 588zM883 1741l58 252h167l-57 -252h-168zM1356 1741l60 252h168l-58 -252h-170z" />
<glyph unicode="&#xc5;" horiz-adv-x="1605" d="M27 0l1126 1587h33l393 -1587h-254l-90 406h-678l-276 -406h-254zM27 0zM668 565h532l-131 588zM1018 1788q0 45 18.5 88t51 78t77.5 56.5t101 21.5q86 0 124.5 -48t38.5 -110q0 -45 -18 -89t-52 -79t-79 -56.5t-100 -21.5q-84 0 -123 48.5t-39 111.5zM1098 1802 q0 -43 23.5 -73.5t74.5 -30.5q66 0 110 50t44 114q0 43 -25 72.5t-72 29.5q-31 0 -59.5 -13t-50 -34.5t-33.5 -51.5t-12 -63z" />
<glyph unicode="&#xc6;" horiz-adv-x="2326" d="M33 0l1112 1567h1403l-49 -213h-799l-105 -449h793l-47 -203h-793l-112 -489h807l-50 -213h-1042l92 406h-678l-284 -406h-248zM678 565h602l182 789h-229z" />
<glyph unicode="&#xc7;" horiz-adv-x="1658" d="M270 0zM270 621q0 207 82 384t222.5 306t325.5 202.5t392 73.5q193 0 336.5 -60.5t239.5 -158.5l-180 -166q-82 78 -192 125t-249 47q-150 0 -284 -55t-234 -152.5t-158.5 -229.5t-58.5 -284q0 -115 33 -200.5t93 -143t142 -87t181 -29.5q74 0 149.5 16t145 48t131 78 t110.5 105l141 -131q-68 -86 -151.5 -147.5t-176.5 -102.5t-192.5 -60t-197.5 -19q-147 0 -268.5 43t-205.5 125.5t-130 201.5t-46 271zM618 -414l189 351h168l-213 -351h-144z" />
<glyph unicode="&#xc8;" horiz-adv-x="1411" d="M172 0l363 1567h1099l-49 -213h-862l-105 -449h855l-48 -203h-854l-110 -489h866l-49 -213h-1106zM172 0zM889 2017h188l215 -329h-153z" />
<glyph unicode="&#xc9;" horiz-adv-x="1411" d="M172 0l363 1567h1099l-49 -213h-862l-105 -449h855l-48 -203h-854l-110 -489h866l-49 -213h-1106zM172 0zM942 1688l358 329h201l-391 -329h-168z" />
<glyph unicode="&#xca;" horiz-adv-x="1411" d="M172 0l363 1567h1099l-49 -213h-862l-105 -449h855l-48 -203h-854l-110 -489h866l-49 -213h-1106zM172 0zM750 1688l409 329h27l258 -329h-156l-143 188l-227 -188h-168z" />
<glyph unicode="&#xcb;" horiz-adv-x="1411" d="M172 0l363 1567h1099l-49 -213h-862l-105 -449h855l-48 -203h-854l-110 -489h866l-49 -213h-1106zM172 0zM809 1741l58 252h167l-57 -252h-168zM1282 1741l60 252h168l-58 -252h-170z" />
<glyph unicode="&#xcc;" horiz-adv-x="649" d="M238 0l363 1567h237l-362 -1567h-238zM238 0zM498 2017h188l215 -329h-153z" />
<glyph unicode="&#xcd;" horiz-adv-x="651" d="M172 0l363 1567h237l-362 -1567h-238zM172 0zM533 1688l358 329h201l-391 -329h-168z" />
<glyph unicode="&#xce;" horiz-adv-x="704" d="M231 0l363 1567h237l-362 -1567h-238zM231 0zM396 1688l409 329h27l258 -329h-156l-143 188l-227 -188h-168z" />
<glyph unicode="&#xcf;" horiz-adv-x="651" d="M207 0l363 1567h237l-362 -1567h-238zM207 0zM405 1741l58 252h167l-57 -252h-168zM878 1741l60 252h168l-58 -252h-170z" />
<glyph unicode="&#xd0;" horiz-adv-x="1691" d="M166 731l33 146h231l160 690h563q174 0 296 -49.5t196.5 -130t108.5 -187t34 -223.5q0 -100 -24.5 -213t-77 -221.5t-132 -206.5t-190.5 -173t-253 -119t-318 -44h-566l168 731h-229zM514 213h334q182 0 314 68.5t218 175t127 235.5t41 250q0 90 -23.5 166t-75.5 130 t-135 85t-202 31h-334l-110 -477h524l-35 -146h-524z" />
<glyph unicode="&#xd1;" horiz-adv-x="1718" d="M172 0l367 1587h28l860 -1106l250 1086h230l-367 -1587h-27l-860 1107l-252 -1087h-229zM172 0zM887 1841q57 63 118.5 103.5t137.5 40.5q41 0 78.5 -14.5t93.5 -49.5q37 -23 69.5 -38t75.5 -15q45 0 86 20.5t94 73.5l56 -74q-55 -66 -118 -104.5t-138 -38.5 q-41 0 -80 14.5t-92 49.5q-39 27 -72 40t-74 13q-45 0 -85 -21.5t-93 -77.5z" />
<glyph unicode="&#xd2;" d="M270 0zM270 602q0 178 74 354.5t206 316.5t313.5 227t396.5 87q164 0 283.5 -51t198.5 -138t116.5 -200t37.5 -235q0 -178 -73.5 -353.5t-205.5 -315.5t-314.5 -227t-397.5 -87q-166 0 -285.5 51t-197.5 137t-115 198.5t-37 235.5zM512 637q0 -96 27.5 -177t83 -140.5 t137.5 -93t188 -33.5q147 0 276.5 62t225.5 164.5t151.5 233.5t55.5 271q0 98 -29 181t-84 142.5t-137 93t-188 33.5q-150 0 -279 -64.5t-224 -169t-149.5 -236.5t-54.5 -267zM1063 2017h188l215 -329h-153z" />
<glyph unicode="&#xd3;" d="M270 0zM270 602q0 178 74 354.5t206 316.5t313.5 227t396.5 87q164 0 283.5 -51t198.5 -138t116.5 -200t37.5 -235q0 -178 -73.5 -353.5t-205.5 -315.5t-314.5 -227t-397.5 -87q-166 0 -285.5 51t-197.5 137t-115 198.5t-37 235.5zM512 637q0 -96 27.5 -177t83 -140.5 t137.5 -93t188 -33.5q147 0 276.5 62t225.5 164.5t151.5 233.5t55.5 271q0 98 -29 181t-84 142.5t-137 93t-188 33.5q-150 0 -279 -64.5t-224 -169t-149.5 -236.5t-54.5 -267zM1116 1688l358 329h201l-391 -329h-168z" />
<glyph unicode="&#xd4;" d="M270 0zM270 602q0 178 74 354.5t206 316.5t313.5 227t396.5 87q164 0 283.5 -51t198.5 -138t116.5 -200t37.5 -235q0 -178 -73.5 -353.5t-205.5 -315.5t-314.5 -227t-397.5 -87q-166 0 -285.5 51t-197.5 137t-115 198.5t-37 235.5zM512 637q0 -96 27.5 -177t83 -140.5 t137.5 -93t188 -33.5q147 0 276.5 62t225.5 164.5t151.5 233.5t55.5 271q0 98 -29 181t-84 142.5t-137 93t-188 33.5q-150 0 -279 -64.5t-224 -169t-149.5 -236.5t-54.5 -267zM946 1688l409 329h27l258 -329h-156l-143 188l-227 -188h-168z" />
<glyph unicode="&#xd5;" d="M270 0zM270 602q0 178 74 354.5t206 316.5t313.5 227t396.5 87q164 0 283.5 -51t198.5 -138t116.5 -200t37.5 -235q0 -178 -73.5 -353.5t-205.5 -315.5t-314.5 -227t-397.5 -87q-166 0 -285.5 51t-197.5 137t-115 198.5t-37 235.5zM512 637q0 -96 27.5 -177t83 -140.5 t137.5 -93t188 -33.5q147 0 276.5 62t225.5 164.5t151.5 233.5t55.5 271q0 98 -29 181t-84 142.5t-137 93t-188 33.5q-150 0 -279 -64.5t-224 -169t-149.5 -236.5t-54.5 -267zM926 1841q57 63 118.5 103.5t137.5 40.5q41 0 78.5 -14.5t93.5 -49.5q37 -23 69.5 -38t75.5 -15 q45 0 86 20.5t94 73.5l56 -74q-55 -66 -118 -104.5t-138 -38.5q-41 0 -80 14.5t-92 49.5q-39 27 -72 40t-74 13q-45 0 -85 -21.5t-93 -77.5z" />
<glyph unicode="&#xd6;" d="M270 0zM270 602q0 178 74 354.5t206 316.5t313.5 227t396.5 87q164 0 283.5 -51t198.5 -138t116.5 -200t37.5 -235q0 -178 -73.5 -353.5t-205.5 -315.5t-314.5 -227t-397.5 -87q-166 0 -285.5 51t-197.5 137t-115 198.5t-37 235.5zM512 637q0 -96 27.5 -177t83 -140.5 t137.5 -93t188 -33.5q147 0 276.5 62t225.5 164.5t151.5 233.5t55.5 271q0 98 -29 181t-84 142.5t-137 93t-188 33.5q-150 0 -279 -64.5t-224 -169t-149.5 -236.5t-54.5 -267zM985 1741l58 252h167l-57 -252h-168zM1458 1741l60 252h168l-58 -252h-170z" />
<glyph unicode="&#xd7;" horiz-adv-x="1570" d="M465 479l407 324l-256 323l115 97l260 -328l412 330l74 -99l-404 -323l254 -324l-115 -96l-262 328l-411 -332z" />
<glyph unicode="&#xd8;" d="M135 -127l287 295q-78 86 -115 198.5t-37 235.5q0 178 74 354.5t206 316.5t313.5 227t396.5 87q133 0 235 -34.5t178 -94.5l289 299l68 -69l-285 -295q78 -86 114.5 -197t36.5 -233q0 -178 -73.5 -353.5t-205.5 -315.5t-314.5 -227t-397.5 -87q-133 0 -234.5 32.5 t-176.5 89.5l-293 -301zM512 637q0 -174 86 -287l905 934q-53 43 -124.5 66.5t-159.5 23.5q-150 0 -279 -64.5t-224 -169t-149.5 -236.5t-54.5 -267zM666 281q53 -41 122.5 -64.5t159.5 -23.5q147 0 276.5 62t225.5 164.5t151.5 234t55.5 270.5q0 170 -86 290z" />
<glyph unicode="&#xd9;" horiz-adv-x="1568" d="M225 0zM297 621l217 946h240l-222 -955q-25 -102 -21.5 -180t37.5 -131t102.5 -80.5t176.5 -27.5q211 0 331 103t169 316l219 955h232l-219 -944q-78 -332 -277 -487.5t-502 -155.5q-322 0 -438.5 164.5t-44.5 476.5zM944 2017h188l215 -329h-153z" />
<glyph unicode="&#xda;" horiz-adv-x="1568" d="M225 0zM297 621l217 946h240l-222 -955q-25 -102 -21.5 -180t37.5 -131t102.5 -80.5t176.5 -27.5q211 0 331 103t169 316l219 955h232l-219 -944q-78 -332 -277 -487.5t-502 -155.5q-322 0 -438.5 164.5t-44.5 476.5zM997 1688l358 329h201l-391 -329h-168z" />
<glyph unicode="&#xdb;" horiz-adv-x="1568" d="M225 0zM297 621l217 946h240l-222 -955q-25 -102 -21.5 -180t37.5 -131t102.5 -80.5t176.5 -27.5q211 0 331 103t169 316l219 955h232l-219 -944q-78 -332 -277 -487.5t-502 -155.5q-322 0 -438.5 164.5t-44.5 476.5zM826 1688l409 329h27l258 -329h-156l-143 188 l-227 -188h-168z" />
<glyph unicode="&#xdc;" horiz-adv-x="1568" d="M225 0zM297 621l217 946h240l-222 -955q-25 -102 -21.5 -180t37.5 -131t102.5 -80.5t176.5 -27.5q211 0 331 103t169 316l219 955h232l-219 -944q-78 -332 -277 -487.5t-502 -155.5q-322 0 -438.5 164.5t-44.5 476.5zM864 1741l58 252h167l-57 -252h-168zM1337 1741 l60 252h168l-58 -252h-170z" />
<glyph unicode="&#xdd;" horiz-adv-x="1554" d="M362 0zM363 1567h258l364 -623l654 623h276l-840 -801l-176 -766h-237l176 760zM989 1688l358 329h201l-391 -329h-168z" />
<glyph unicode="&#xde;" horiz-adv-x="1417" d="M172 0l363 1567h237l-72 -307h445q100 0 170.5 -30t117 -79t68 -115.5t21.5 -140.5q0 -100 -38 -204.5t-113 -188.5t-186.5 -138.5t-258.5 -54.5h-445l-71 -309h-238zM526 506h445q82 0 142.5 32.5t101 84t61 113t20.5 118.5q0 86 -46 143.5t-152 57.5h-445z" />
<glyph unicode="&#xdf;" horiz-adv-x="1423" d="M172 0l287 1243q23 100 71 166t113.5 105.5t147.5 56t174 16.5q100 0 169.5 -17.5t112.5 -51t61.5 -81.5t18.5 -112q0 -45 -11 -105.5t-41 -129t-82 -142.5t-134 -147h22q147 0 230.5 -77t83.5 -220q0 -94 -38 -188.5t-112 -169t-184.5 -120.5t-255.5 -46q-96 0 -181 20 t-126 59l77 148q35 -35 97.5 -52.5t132.5 -17.5q96 0 166.5 32t117 82t69 109.5t22.5 114.5q0 100 -68 150.5t-190 50.5q-31 0 -66 -3t-74 -11l9 28q88 88 147 165t96 145.5t53.5 132t16.5 124.5q0 90 -37 131.5t-135 41.5q-100 0 -170 -48.5t-98 -169.5l-281 -1212h-211z " />
<glyph unicode="&#xe0;" horiz-adv-x="1140" d="M127 0zM127 190q0 51 18.5 101.5t58.5 91.5t105.5 70.5t159.5 42.5l455 61q4 16 6 31.5t2 32.5q0 66 -51.5 96.5t-173.5 30.5q-84 0 -176.5 -16.5t-211.5 -59.5l5 139q135 55 242.5 70.5t191.5 15.5q217 0 305 -60.5t88 -174.5q0 -16 -2 -39t-8 -48l-135 -575h-203l20 90 q-106 -49 -209.5 -79.5t-214.5 -30.5q-272 0 -272 210zM338 229q0 -59 39 -89.5t125 -30.5q82 0 168 24.5t172 61.5l59 262l-375 -62q-90 -16 -139 -55t-49 -111zM578 1327h188l215 -329h-153z" />
<glyph unicode="&#xe1;" horiz-adv-x="1140" d="M127 0zM127 190q0 51 18.5 101.5t58.5 91.5t105.5 70.5t159.5 42.5l455 61q4 16 6 31.5t2 32.5q0 66 -51.5 96.5t-173.5 30.5q-84 0 -176.5 -16.5t-211.5 -59.5l5 139q135 55 242.5 70.5t191.5 15.5q217 0 305 -60.5t88 -174.5q0 -16 -2 -39t-8 -48l-135 -575h-203l20 90 q-106 -49 -209.5 -79.5t-214.5 -30.5q-272 0 -272 210zM338 229q0 -59 39 -89.5t125 -30.5q82 0 168 24.5t172 61.5l59 262l-375 -62q-90 -16 -139 -55t-49 -111zM619 998l358 329h201l-391 -329h-168z" />
<glyph unicode="&#xe2;" horiz-adv-x="1140" d="M127 0zM127 190q0 51 18.5 101.5t58.5 91.5t105.5 70.5t159.5 42.5l455 61q4 16 6 31.5t2 32.5q0 66 -51.5 96.5t-173.5 30.5q-84 0 -176.5 -16.5t-211.5 -59.5l5 139q135 55 242.5 70.5t191.5 15.5q217 0 305 -60.5t88 -174.5q0 -16 -2 -39t-8 -48l-135 -575h-203l20 90 q-106 -49 -209.5 -79.5t-214.5 -30.5q-272 0 -272 210zM338 229q0 -59 39 -89.5t125 -30.5q82 0 168 24.5t172 61.5l59 262l-375 -62q-90 -16 -139 -55t-49 -111zM461 998l409 329h27l258 -329h-156l-143 188l-227 -188h-168z" />
<glyph unicode="&#xe3;" horiz-adv-x="1140" d="M127 0zM127 190q0 51 18.5 101.5t58.5 91.5t105.5 70.5t159.5 42.5l455 61q4 16 6 31.5t2 32.5q0 66 -51.5 96.5t-173.5 30.5q-84 0 -176.5 -16.5t-211.5 -59.5l5 139q135 55 242.5 70.5t191.5 15.5q217 0 305 -60.5t88 -174.5q0 -16 -2 -39t-8 -48l-135 -575h-203l20 90 q-106 -49 -209.5 -79.5t-214.5 -30.5q-272 0 -272 210zM338 229q0 -59 39 -89.5t125 -30.5q82 0 168 24.5t172 61.5l59 262l-375 -62q-90 -16 -139 -55t-49 -111zM443 1151q57 63 118.5 103.5t137.5 40.5q41 0 78.5 -14.5t93.5 -49.5q37 -23 69.5 -38t75.5 -15q45 0 86 20.5 t94 73.5l56 -74q-55 -66 -118 -104.5t-138 -38.5q-41 0 -80 14.5t-92 49.5q-39 27 -72 40t-74 13q-45 0 -85 -21.5t-93 -77.5z" />
<glyph unicode="&#xe4;" horiz-adv-x="1140" d="M127 0zM127 190q0 51 18.5 101.5t58.5 91.5t105.5 70.5t159.5 42.5l455 61q4 16 6 31.5t2 32.5q0 66 -51.5 96.5t-173.5 30.5q-84 0 -176.5 -16.5t-211.5 -59.5l5 139q135 55 242.5 70.5t191.5 15.5q217 0 305 -60.5t88 -174.5q0 -16 -2 -39t-8 -48l-135 -575h-203l20 90 q-106 -49 -209.5 -79.5t-214.5 -30.5q-272 0 -272 210zM338 229q0 -59 39 -89.5t125 -30.5q82 0 168 24.5t172 61.5l59 262l-375 -62q-90 -16 -139 -55t-49 -111zM500 1051l58 252h167l-57 -252h-168zM973 1051l60 252h168l-58 -252h-170z" />
<glyph unicode="&#xe5;" horiz-adv-x="1140" d="M127 0zM127 190q0 51 18.5 101.5t58.5 91.5t105.5 70.5t159.5 42.5l455 61q4 16 6 31.5t2 32.5q0 66 -51.5 96.5t-173.5 30.5q-84 0 -176.5 -16.5t-211.5 -59.5l5 139q135 55 242.5 70.5t191.5 15.5q217 0 305 -60.5t88 -174.5q0 -16 -2 -39t-8 -48l-135 -575h-203l20 90 q-106 -49 -209.5 -79.5t-214.5 -30.5q-272 0 -272 210zM338 229q0 -59 39 -89.5t125 -30.5q82 0 168 24.5t172 61.5l59 262l-375 -62q-90 -16 -139 -55t-49 -111zM647 1161q0 45 18.5 88t51 78t77.5 56.5t101 21.5q86 0 124.5 -48t38.5 -110q0 -45 -18 -89t-52 -79 t-79 -56.5t-100 -21.5q-84 0 -123 48.5t-39 111.5zM727 1175q0 -43 23.5 -73.5t74.5 -30.5q66 0 110 50t44 114q0 43 -25 72.5t-72 29.5q-31 0 -59.5 -13t-50 -34.5t-33.5 -51.5t-12 -63z" />
<glyph unicode="&#xe6;" horiz-adv-x="1902" d="M127 193q0 49 16.5 97t56.5 89t105.5 71.5t163.5 45.5l455 61q8 33 8 61q0 66 -50.5 98t-174.5 32q-84 0 -176.5 -16.5t-211.5 -59.5l5 139q135 55 242.5 70.5t193.5 15.5q154 0 243 -31.5t123 -97.5q78 59 176.5 94t217.5 35q104 0 179 -27.5t121 -74.5t67.5 -108.5 t21.5 -129.5q0 -84 -29 -170h-770v-25q0 -104 66.5 -170.5t224.5 -66.5q150 0 305 59l12 -129q-59 -31 -162.5 -53t-212.5 -22q-158 0 -252 47t-141 123q-139 -68 -281.5 -119t-277.5 -51q-129 0 -196.5 53t-67.5 160zM338 227q0 -118 158 -118q98 0 208.5 37.5t210.5 84.5 q-14 49 -14 107q0 55 17 121l-392 -64q-102 -14 -145 -61t-43 -107zM1130 487h570q4 18 6 36t2 34q0 84 -51 140.5t-168 56.5q-135 0 -228.5 -77t-130.5 -190z" />
<glyph unicode="&#xe7;" horiz-adv-x="1081" d="M203 0zM203 344q0 121 53 222.5t139 175t196.5 114.5t227.5 41q98 0 187.5 -29.5t152.5 -87.5l-119 -114q-51 43 -112.5 61t-120.5 18q-80 0 -152.5 -29.5t-129 -79.5t-89.5 -120t-33 -149q0 -104 60.5 -170t189.5 -66q92 0 164 36t131 97l94 -82q-76 -88 -187.5 -145 t-258.5 -57q-102 0 -176 28.5t-122 77.5t-71.5 115.5t-23.5 142.5zM288 -414l189 351h168l-213 -351h-144z" />
<glyph unicode="&#xe8;" horiz-adv-x="1202" d="M201 0zM201 338q0 98 43 197.5t122.5 180.5t194.5 131t258 50q104 0 179 -27.5t121 -74.5t67.5 -108.5t21.5 -129.5q0 -84 -28 -170h-770v-25q0 -104 66.5 -170.5t223.5 -66.5q150 0 306 59l12 -129q-59 -31 -162.5 -53t-212.5 -22q-121 0 -206 29.5t-137 79.5 t-75.5 114.5t-23.5 134.5zM430 487h569q4 18 6.5 36t2.5 34q0 84 -51.5 140.5t-168.5 56.5q-135 0 -228 -77t-130 -190zM615 1327h188l215 -329h-153z" />
<glyph unicode="&#xe9;" horiz-adv-x="1202" d="M201 0zM201 338q0 98 43 197.5t122.5 180.5t194.5 131t258 50q104 0 179 -27.5t121 -74.5t67.5 -108.5t21.5 -129.5q0 -84 -28 -170h-770v-25q0 -104 66.5 -170.5t223.5 -66.5q150 0 306 59l12 -129q-59 -31 -162.5 -53t-212.5 -22q-121 0 -206 29.5t-137 79.5 t-75.5 114.5t-23.5 134.5zM430 487h569q4 18 6.5 36t2.5 34q0 84 -51.5 140.5t-168.5 56.5q-135 0 -228 -77t-130 -190zM674 998l358 329h201l-391 -329h-168z" />
<glyph unicode="&#xea;" horiz-adv-x="1202" d="M201 0zM201 338q0 98 43 197.5t122.5 180.5t194.5 131t258 50q104 0 179 -27.5t121 -74.5t67.5 -108.5t21.5 -129.5q0 -84 -28 -170h-770v-25q0 -104 66.5 -170.5t223.5 -66.5q150 0 306 59l12 -129q-59 -31 -162.5 -53t-212.5 -22q-121 0 -206 29.5t-137 79.5 t-75.5 114.5t-23.5 134.5zM430 487h569q4 18 6.5 36t2.5 34q0 84 -51.5 140.5t-168.5 56.5q-135 0 -228 -77t-130 -190zM510 998l409 329h27l258 -329h-156l-143 188l-227 -188h-168z" />
<glyph unicode="&#xeb;" horiz-adv-x="1202" d="M201 0zM201 338q0 98 43 197.5t122.5 180.5t194.5 131t258 50q104 0 179 -27.5t121 -74.5t67.5 -108.5t21.5 -129.5q0 -84 -28 -170h-770v-25q0 -104 66.5 -170.5t223.5 -66.5q150 0 306 59l12 -129q-59 -31 -162.5 -53t-212.5 -22q-121 0 -206 29.5t-137 79.5 t-75.5 114.5t-23.5 134.5zM430 487h569q4 18 6.5 36t2.5 34q0 84 -51.5 140.5t-168.5 56.5q-135 0 -228 -77t-130 -190zM545 1051l58 252h167l-57 -252h-168zM1018 1051l60 252h168l-58 -252h-170z" />
<glyph unicode="&#xec;" horiz-adv-x="624" d="M238 0l203 874h211l-203 -874h-211zM238 0zM326 1327h188l215 -329h-153z" />
<glyph unicode="&#xed;" horiz-adv-x="624" d="M172 0l203 874h211l-203 -874h-211zM172 0zM356 998l358 329h201l-391 -329h-168z" />
<glyph unicode="&#xee;" horiz-adv-x="690" d="M229 0zM230 998l409 329h27l258 -329h-156l-143 188l-227 -188h-168zM238 0l203 874h211l-203 -874h-211z" />
<glyph unicode="&#xef;" horiz-adv-x="641" d="M213 0l203 874h211l-203 -874h-211zM213 0zM241 1051l58 252h167l-57 -252h-168zM714 1051l60 252h168l-58 -252h-170z" />
<glyph unicode="&#xf0;" horiz-adv-x="1224" d="M205 344q0 92 38 190.5t108.5 179.5t172 132t228.5 51q90 0 165.5 -25.5t135.5 -62.5q-8 121 -40 225.5t-81 192.5l-320 -195l-26 105l291 178q-61 86 -137 149.5t-156 102.5h241q49 -23 101.5 -63t103.5 -97l295 180l27 -104l-258 -158q72 -104 120 -245.5t48 -321.5 q0 -164 -44 -306.5t-127 -247t-205 -164.5t-278 -60q-102 0 -178 29.5t-126 79.5t-74.5 115.5t-24.5 139.5zM422 383q0 -104 54 -170t167 -66q82 0 153.5 38t125 107.5t87 167t42.5 214.5q-63 41 -135 66.5t-144 25.5q-80 0 -144.5 -33t-110.5 -86t-70.5 -121.5 t-24.5 -142.5z" />
<glyph unicode="&#xf1;" horiz-adv-x="1263" d="M158 0l202 874h205l-20 -90q39 20 92 41t113.5 36.5t127 25.5t134.5 10q131 0 198.5 -46t67.5 -163q0 -61 -18 -143l-127 -545h-209l118 514q12 51 13 92q0 74 -41 103.5t-119 29.5q-49 0 -103.5 -9t-106.5 -24.5t-96 -34t-73 -36.5l-145 -635h-213zM158 0zM510 1151 q57 63 118.5 103.5t137.5 40.5q41 0 78.5 -14.5t93.5 -49.5q37 -23 69.5 -38t75.5 -15q45 0 86 20.5t94 73.5l56 -74q-55 -66 -118 -104.5t-138 -38.5q-41 0 -80 14.5t-92 49.5q-39 27 -72 40t-74 13q-45 0 -85 -21.5t-93 -77.5z" />
<glyph unicode="&#xf2;" horiz-adv-x="1206" d="M203 0zM203 342q0 100 44 199.5t124 178.5t190.5 128t243.5 49q102 0 178 -29.5t125 -81t72.5 -117t23.5 -137.5q0 -100 -45 -199.5t-125 -177t-190.5 -126.5t-241.5 -49q-102 0 -177 29.5t-124 79.5t-73.5 115.5t-24.5 137.5zM414 358q0 -98 54 -162.5t165 -64.5 q78 0 144.5 34t114.5 88t75.5 122.5t27.5 140.5q0 98 -54 163.5t-167 65.5q-78 0 -143.5 -33.5t-113.5 -88t-75.5 -124t-27.5 -141.5zM607 1327h188l215 -329h-153z" />
<glyph unicode="&#xf3;" horiz-adv-x="1206" d="M203 0zM203 342q0 100 44 199.5t124 178.5t190.5 128t243.5 49q102 0 178 -29.5t125 -81t72.5 -117t23.5 -137.5q0 -100 -45 -199.5t-125 -177t-190.5 -126.5t-241.5 -49q-102 0 -177 29.5t-124 79.5t-73.5 115.5t-24.5 137.5zM414 358q0 -98 54 -162.5t165 -64.5 q78 0 144.5 34t114.5 88t75.5 122.5t27.5 140.5q0 98 -54 163.5t-167 65.5q-78 0 -143.5 -33.5t-113.5 -88t-75.5 -124t-27.5 -141.5zM658 998l358 329h201l-391 -329h-168z" />
<glyph unicode="&#xf4;" horiz-adv-x="1206" d="M203 0zM203 342q0 100 44 199.5t124 178.5t190.5 128t243.5 49q102 0 178 -29.5t125 -81t72.5 -117t23.5 -137.5q0 -100 -45 -199.5t-125 -177t-190.5 -126.5t-241.5 -49q-102 0 -177 29.5t-124 79.5t-73.5 115.5t-24.5 137.5zM414 358q0 -98 54 -162.5t165 -64.5 q78 0 144.5 34t114.5 88t75.5 122.5t27.5 140.5q0 98 -54 163.5t-167 65.5q-78 0 -143.5 -33.5t-113.5 -88t-75.5 -124t-27.5 -141.5zM488 998l409 329h27l258 -329h-156l-143 188l-227 -188h-168z" />
<glyph unicode="&#xf5;" horiz-adv-x="1206" d="M203 0zM203 342q0 100 44 199.5t124 178.5t190.5 128t243.5 49q102 0 178 -29.5t125 -81t72.5 -117t23.5 -137.5q0 -100 -45 -199.5t-125 -177t-190.5 -126.5t-241.5 -49q-102 0 -177 29.5t-124 79.5t-73.5 115.5t-24.5 137.5zM414 358q0 -98 54 -162.5t165 -64.5 q78 0 144.5 34t114.5 88t75.5 122.5t27.5 140.5q0 98 -54 163.5t-167 65.5q-78 0 -143.5 -33.5t-113.5 -88t-75.5 -124t-27.5 -141.5zM469 1151q57 63 118.5 103.5t137.5 40.5q41 0 78.5 -14.5t93.5 -49.5q37 -23 69.5 -38t75.5 -15q45 0 86 20.5t94 73.5l56 -74 q-55 -66 -118 -104.5t-138 -38.5q-41 0 -80 14.5t-92 49.5q-39 27 -72 40t-74 13q-45 0 -85 -21.5t-93 -77.5z" />
<glyph unicode="&#xf6;" horiz-adv-x="1206" d="M203 0zM203 342q0 100 44 199.5t124 178.5t190.5 128t243.5 49q102 0 178 -29.5t125 -81t72.5 -117t23.5 -137.5q0 -100 -45 -199.5t-125 -177t-190.5 -126.5t-241.5 -49q-102 0 -177 29.5t-124 79.5t-73.5 115.5t-24.5 137.5zM414 358q0 -98 54 -162.5t165 -64.5 q78 0 144.5 34t114.5 88t75.5 122.5t27.5 140.5q0 98 -54 163.5t-167 65.5q-78 0 -143.5 -33.5t-113.5 -88t-75.5 -124t-27.5 -141.5zM528 1051l58 252h167l-57 -252h-168zM1001 1051l60 252h168l-58 -252h-170z" />
<glyph unicode="&#xf7;" horiz-adv-x="1572" d="M459 735l33 137h991l-33 -137h-991zM729 236l64 268h225l-62 -268h-227zM930 1104l63 268h226l-62 -268h-227z" />
<glyph unicode="&#xf8;" horiz-adv-x="1206" d="M160 -125l166 191q-63 51 -93 122.5t-30 153.5q0 100 44 199.5t124 178.5t190.5 128t243.5 49q119 0 209 -45l160 184l71 -61l-153 -174q57 -53 84.5 -122t27.5 -147q0 -100 -45 -199.5t-125 -177t-190.5 -126.5t-241.5 -49q-59 0 -107.5 10t-88.5 26l-179 -204zM414 358 q0 -90 41 -145l438 504q-47 28 -119 28q-78 0 -143.5 -33.5t-113.5 -88t-75.5 -124t-27.5 -141.5zM526 152q41 -20 107 -21q78 0 144.5 34t114.5 88t75.5 122.5t27.5 140.5q0 76 -34 133z" />
<glyph unicode="&#xf9;" horiz-adv-x="1306" d="M231 0zM231 193q0 59 19 137l125 544h211l-119 -516q-12 -55 -12 -94q0 -72 40 -99.5t117 -27.5q49 0 104.5 9.5t108 24.5t96.5 32.5t72 36.5l148 634h209l-203 -874h-203l21 90q-37 -20 -90.5 -39.5t-114 -35t-127 -25.5t-131.5 -10q-133 0 -202 48t-69 165zM654 1327 h188l215 -329h-153z" />
<glyph unicode="&#xfa;" horiz-adv-x="1306" d="M231 0zM231 193q0 59 19 137l125 544h211l-119 -516q-12 -55 -12 -94q0 -72 40 -99.5t117 -27.5q49 0 104.5 9.5t108 24.5t96.5 32.5t72 36.5l148 634h209l-203 -874h-203l21 90q-37 -20 -90.5 -39.5t-114 -35t-127 -25.5t-131.5 -10q-133 0 -202 48t-69 165zM707 998 l358 329h201l-391 -329h-168z" />
<glyph unicode="&#xfb;" horiz-adv-x="1306" d="M231 0zM231 193q0 59 19 137l125 544h211l-119 -516q-12 -55 -12 -94q0 -72 40 -99.5t117 -27.5q49 0 104.5 9.5t108 24.5t96.5 32.5t72 36.5l148 634h209l-203 -874h-203l21 90q-37 -20 -90.5 -39.5t-114 -35t-127 -25.5t-131.5 -10q-133 0 -202 48t-69 165zM539 998 l409 329h27l258 -329h-156l-143 188l-227 -188h-168z" />
<glyph unicode="&#xfc;" horiz-adv-x="1306" d="M231 0zM231 193q0 59 19 137l125 544h211l-119 -516q-12 -55 -12 -94q0 -72 40 -99.5t117 -27.5q49 0 104.5 9.5t108 24.5t96.5 32.5t72 36.5l148 634h209l-203 -874h-203l21 90q-37 -20 -90.5 -39.5t-114 -35t-127 -25.5t-131.5 -10q-133 0 -202 48t-69 165zM577 1051 l58 252h167l-57 -252h-168zM1050 1051l60 252h168l-58 -252h-170z" />
<glyph unicode="&#xfd;" horiz-adv-x="1112" d="M55 0zM55 -414l426 541l-252 747h207l191 -563l444 563h215l-1022 -1288h-209zM610 998l358 329h201l-391 -329h-168z" />
<glyph unicode="&#xfe;" horiz-adv-x="1306" d="M78 -414l457 1981h210l-180 -781q35 18 83 38t102.5 36.5t113 26.5t113.5 10q84 0 146.5 -26.5t102.5 -73.5t59.5 -110.5t19.5 -135.5q0 -98 -35 -199.5t-102.5 -184.5t-166 -135t-223.5 -52q-55 0 -109.5 10t-103.5 25.5t-90 36t-69 38.5l-117 -504h-211zM436 233 q23 -14 56.5 -30.5t75.5 -30.5t87 -24.5t88 -10.5q80 0 143.5 33t108.5 87t70 121.5t25 137.5q0 102 -52.5 162.5t-158.5 60.5q-45 0 -93.5 -10t-95.5 -24.5t-88 -31t-70 -30.5z" />
<glyph unicode="&#xff;" horiz-adv-x="1112" d="M55 0zM55 -414l426 541l-252 747h207l191 -563l444 563h215l-1022 -1288h-209zM469 1022l58 252h167l-57 -252h-168zM942 1022l60 252h168l-58 -252h-170z" />
<glyph unicode="&#x152;" horiz-adv-x="2486" d="M266 592q0 102 22.5 214t72 219.5t125 205.5t183 173t247 119t315.5 44h1474l-49 -213h-862l-104 -449h856l-49 -203h-852l-115 -489h870l-51 -213h-1479q-170 0 -285.5 49t-186 131t-101.5 189.5t-31 222.5zM508 631q0 -90 21.5 -167t69.5 -132.5t127 -87t194 -31.5 l372 -2l262 1143h-372q-188 0 -317.5 -70t-208 -177.5t-113.5 -234.5t-35 -241z" />
<glyph unicode="&#x153;" horiz-adv-x="1982" d="M203 342q0 100 44 199.5t124 178.5t190.5 128t243.5 49t219 -48t131 -126q80 78 190.5 126t251.5 48q104 0 179 -27.5t121.5 -74.5t68 -108.5t21.5 -129.5q0 -84 -29 -170h-770v-25q0 -104 66.5 -170.5t224.5 -66.5q150 0 305 59l12 -129q-59 -31 -162.5 -53t-212.5 -22 q-156 0 -251 47t-142 123q-80 -78 -188.5 -124t-237.5 -46q-102 0 -177 29.5t-124 79.5t-73.5 115.5t-24.5 137.5zM414 358q0 -98 54 -162.5t165 -64.5q78 0 144.5 34t114.5 88t75.5 122.5t27.5 140.5q0 98 -54 163.5t-167 65.5q-78 0 -143.5 -33.5t-113.5 -88t-75.5 -124 t-27.5 -141.5zM1208 487h570q4 18 6 36t2 34q0 84 -51 140.5t-168 56.5q-135 0 -228.5 -77t-130.5 -190z" />
<glyph unicode="&#x178;" horiz-adv-x="1579" d="M375 0zM375 1567h258l364 -623l654 623h276l-840 -801l-176 -766h-237l176 760zM872 1741l58 252h167l-57 -252h-168zM1345 1741l60 252h168l-58 -252h-170z" />
<glyph unicode="&#x2c6;" horiz-adv-x="987" d="M371 969l409 329h27l258 -329h-156l-143 188l-227 -188h-168z" />
<glyph unicode="&#x2dc;" horiz-adv-x="1107" d="M414 1122q57 63 118.5 103.5t137.5 40.5q41 0 78.5 -14.5t93.5 -49.5q37 -23 69.5 -38t75.5 -15q45 0 86 20.5t94 73.5l56 -74q-55 -66 -118 -104.5t-138 -38.5q-41 0 -80 14.5t-92 49.5q-39 27 -72 40t-74 13q-45 0 -85 -21.5t-93 -77.5z" />
<glyph unicode="&#x2000;" horiz-adv-x="1016" />
<glyph unicode="&#x2001;" horiz-adv-x="2032" />
<glyph unicode="&#x2002;" horiz-adv-x="1016" />
<glyph unicode="&#x2003;" horiz-adv-x="2032" />
<glyph unicode="&#x2004;" horiz-adv-x="677" />
<glyph unicode="&#x2005;" horiz-adv-x="508" />
<glyph unicode="&#x2006;" horiz-adv-x="338" />
<glyph unicode="&#x2007;" horiz-adv-x="338" />
<glyph unicode="&#x2008;" horiz-adv-x="254" />
<glyph unicode="&#x2009;" horiz-adv-x="406" />
<glyph unicode="&#x200a;" horiz-adv-x="112" />
<glyph unicode="&#x2010;" horiz-adv-x="700" d="M162 481l33 146h600l-35 -146h-598z" />
<glyph unicode="&#x2011;" horiz-adv-x="700" d="M162 481l33 146h600l-35 -146h-598z" />
<glyph unicode="&#x2012;" horiz-adv-x="700" d="M162 481l33 146h600l-35 -146h-598z" />
<glyph unicode="&#x2013;" horiz-adv-x="1093" d="M162 481l33 146h993l-35 -146h-991z" />
<glyph unicode="&#x2014;" horiz-adv-x="1660" d="M162 481l33 146h1560l-33 -146h-1560z" />
<glyph unicode="&#x2018;" horiz-adv-x="436" d="M418 1053l49 530l10 37h225l-77 -268h-54l-59 -299h-94z" />
<glyph unicode="&#x2019;" horiz-adv-x="436" d="M371 1053l98 299h-53l64 268h225l-10 -37l-230 -530h-94zM371 1053z" />
<glyph unicode="&#x201a;" horiz-adv-x="436" d="M59 0zM59 -299l98 299h-53l64 268h225l-10 -37l-230 -530h-94z" />
<glyph unicode="&#x201c;" horiz-adv-x="749" d="M418 1053l49 530l10 37h225l-77 -268h-54l-59 -299h-94zM418 1053zM760 1053l49 530l10 37h225l-77 -268h-54l-59 -299h-94z" />
<glyph unicode="&#x201d;" horiz-adv-x="749" d="M371 1053l98 299h-53l64 268h225l-10 -37l-230 -530h-94zM371 1053zM719 1053l98 299h-53l64 268h225l-10 -37l-230 -530h-94z" />
<glyph unicode="&#x201e;" horiz-adv-x="749" d="M59 0zM59 -299l98 299h-53l64 268h225l-10 -37l-230 -530h-94zM373 -299l98 299h-53l64 268h225l-10 -37l-230 -530h-94z" />
<glyph unicode="&#x2022;" horiz-adv-x="796" d="M381 754q0 49 18.5 97t52 87t80 62.5t99.5 23.5q82 0 118.5 -51t36.5 -117q0 -49 -18 -98t-52 -88t-80 -63.5t-99 -24.5q-41 0 -71 14t-48.5 38.5t-27.5 55.5t-9 64z" />
<glyph unicode="&#x2026;" horiz-adv-x="1757" d="M172 0l64 268h225l-62 -268h-227zM172 0zM764 0l64 268h225l-62 -268h-227zM1358 0l64 268h225l-62 -268h-227z" />
<glyph unicode="&#x202f;" horiz-adv-x="406" />
<glyph unicode="&#x2039;" horiz-adv-x="716" d="M201 414l6 22l457 410h143l-445 -434l250 -412h-143z" />
<glyph unicode="&#x203a;" horiz-adv-x="718" d="M106 0l445 434l-250 412h143l271 -410l-6 -22l-461 -414h-142z" />
<glyph unicode="&#x205f;" horiz-adv-x="508" />
<glyph unicode="&#x20ac;" horiz-adv-x="1570" d="M256 580l61 118h187q8 53 20.5 108.5t30.5 111.5h-221l63 120h203q47 111 115.5 210.5t159 174t203 119.5t247.5 45q94 0 185.5 -25.5t144.5 -91.5l-86 -153q-59 51 -122 65.5t-116 14.5q-94 0 -172 -29t-141.5 -77t-112.5 -113.5t-84 -139.5h602l-61 -120h-588 q-18 -55 -29.5 -110.5t-17.5 -109.5h528l-61 -118h-473q0 -86 18.5 -158t55 -124t92 -82t133.5 -30q106 0 200.5 59.5t165.5 170.5l78 -111q-100 -147 -238.5 -236t-303.5 -89q-109 0 -190 46t-134 123.5t-78.5 179t-25.5 214.5v37h-238z" />
<glyph unicode="&#x2122;" horiz-adv-x="1951" d="M430 1456l27 111h651l-25 -111h-260l-180 -778h-141l180 778h-252zM1026 678l209 909h22l263 -698l604 698h22l-209 -909h-131l113 487l-440 -508h-23l-188 510l-113 -489h-129z" />
<glyph unicode="&#x25fc;" horiz-adv-x="870" d="M0 0v870h870v-870h-870z" />
</font>
</defs>
</svg>
